<mxfile host="65bd71144e">
    <diagram id="ueDztWpqsZQ93oSX34Va" name="Page-1">
        <mxGraphModel dx="1722" dy="1162" grid="1" gridSize="10" guides="1" tooltips="1" connect="1" arrows="1" fold="1" page="1" pageScale="1" pageWidth="850" pageHeight="1100" math="0" shadow="0">
            <root>
                <mxCell id="0"/>
                <mxCell id="1" parent="0"/>
                <mxCell id="2" value="　住む" style="rounded=0;whiteSpace=wrap;html=1;align=left;" vertex="1" parent="1">
                    <mxGeometry x="180" y="120" width="60" height="30" as="geometry"/>
                </mxCell>
                <mxCell id="3" value="　暮らす" style="rounded=0;whiteSpace=wrap;html=1;align=left;" vertex="1" parent="1">
                    <mxGeometry x="180" y="160" width="60" height="30" as="geometry"/>
                </mxCell>
                <mxCell id="4" value="　犬" style="rounded=0;whiteSpace=wrap;html=1;align=left;" vertex="1" parent="1">
                    <mxGeometry x="180" y="200" width="60" height="30" as="geometry"/>
                </mxCell>
                <mxCell id="5" value="　大きな" style="rounded=0;whiteSpace=wrap;html=1;align=left;" vertex="1" parent="1">
                    <mxGeometry x="180" y="240" width="60" height="30" as="geometry"/>
                </mxCell>
                <mxCell id="6" value="　高い" style="rounded=0;whiteSpace=wrap;html=1;align=left;" vertex="1" parent="1">
                    <mxGeometry x="180" y="280" width="60" height="30" as="geometry"/>
                </mxCell>
                <mxCell id="8" value="" style="rounded=0;whiteSpace=wrap;html=1;align=left;fillColor=#666666;" vertex="1" parent="1">
                    <mxGeometry x="260" y="120" width="120" height="30" as="geometry"/>
                </mxCell>
                <mxCell id="13" value="" style="rounded=0;whiteSpace=wrap;html=1;align=left;fillColor=#666666;" vertex="1" parent="1">
                    <mxGeometry x="260" y="160" width="90" height="30" as="geometry"/>
                </mxCell>
                <mxCell id="14" value="" style="rounded=0;whiteSpace=wrap;html=1;align=left;fillColor=#999999;" vertex="1" parent="1">
                    <mxGeometry x="260" y="200" width="50" height="30" as="geometry"/>
                </mxCell>
                <mxCell id="15" value="" style="rounded=0;whiteSpace=wrap;html=1;align=left;fillColor=#CCCCCC;" vertex="1" parent="1">
                    <mxGeometry x="260" y="240" width="30" height="30" as="geometry"/>
                </mxCell>
                <mxCell id="16" value="" style="rounded=0;whiteSpace=wrap;html=1;align=left;fillColor=#CCCCCC;" vertex="1" parent="1">
                    <mxGeometry x="260" y="280" width="20" height="30" as="geometry"/>
                </mxCell>
                <mxCell id="28" value="" style="rounded=0;whiteSpace=wrap;html=1;align=left;fillColor=#666666;" vertex="1" parent="1">
                    <mxGeometry x="400" y="120" width="120" height="30" as="geometry"/>
                </mxCell>
                <mxCell id="29" value="" style="rounded=0;whiteSpace=wrap;html=1;align=left;fillColor=#666666;" vertex="1" parent="1">
                    <mxGeometry x="400" y="160" width="100" height="30" as="geometry"/>
                </mxCell>
                <mxCell id="30" value="" style="rounded=0;whiteSpace=wrap;html=1;align=left;fillColor=#999999;" vertex="1" parent="1">
                    <mxGeometry x="400" y="200" width="70" height="30" as="geometry"/>
                </mxCell>
                <mxCell id="31" value="" style="rounded=0;whiteSpace=wrap;html=1;align=left;fillColor=#999999;" vertex="1" parent="1">
                    <mxGeometry x="400" y="240" width="60" height="30" as="geometry"/>
                </mxCell>
                <mxCell id="32" value="" style="rounded=0;whiteSpace=wrap;html=1;align=left;fillColor=#999999;" vertex="1" parent="1">
                    <mxGeometry x="400" y="280" width="50" height="30" as="geometry"/>
                </mxCell>
                <mxCell id="43" value="" style="rounded=0;whiteSpace=wrap;html=1;align=left;fillColor=#666666;" vertex="1" parent="1">
                    <mxGeometry x="540" y="120" width="120" height="30" as="geometry"/>
                </mxCell>
                <mxCell id="44" value="" style="rounded=0;whiteSpace=wrap;html=1;align=left;fillColor=#666666;" vertex="1" parent="1">
                    <mxGeometry x="540" y="160" width="110" height="30" as="geometry"/>
                </mxCell>
                <mxCell id="45" value="" style="rounded=0;whiteSpace=wrap;html=1;align=left;fillColor=#666666;" vertex="1" parent="1">
                    <mxGeometry x="540" y="200" width="100" height="30" as="geometry"/>
                </mxCell>
                <mxCell id="46" value="" style="rounded=0;whiteSpace=wrap;html=1;align=left;fillColor=#666666;" vertex="1" parent="1">
                    <mxGeometry x="540" y="240" width="90" height="30" as="geometry"/>
                </mxCell>
                <mxCell id="47" value="" style="rounded=0;whiteSpace=wrap;html=1;align=left;fillColor=#666666;" vertex="1" parent="1">
                    <mxGeometry x="540" y="280" width="80" height="30" as="geometry"/>
                </mxCell>
                <mxCell id="48" value="" style="shape=flexArrow;endArrow=classic;html=1;width=20;endSize=6.33;endWidth=20;" edge="1" parent="1">
                    <mxGeometry width="50" height="50" relative="1" as="geometry">
                        <mxPoint x="260" y="90" as="sourcePoint"/>
                        <mxPoint x="660" y="90" as="targetPoint"/>
                    </mxGeometry>
                </mxCell>
                <mxCell id="51" value="temperature" style="text;html=1;strokeColor=none;fillColor=none;align=center;verticalAlign=middle;whiteSpace=wrap;rounded=0;" vertex="1" parent="1">
                    <mxGeometry x="370" y="80" width="180" height="20" as="geometry"/>
                </mxCell>
                <mxCell id="52" value="確率" style="text;html=1;strokeColor=none;fillColor=none;align=center;verticalAlign=middle;whiteSpace=wrap;rounded=0;fontColor=#FFFFFF;" vertex="1" parent="1">
                    <mxGeometry x="290" y="120" width="60" height="30" as="geometry"/>
                </mxCell>
                <mxCell id="59" value="確率" style="text;html=1;strokeColor=none;fillColor=none;align=center;verticalAlign=middle;whiteSpace=wrap;rounded=0;fontColor=#FFFFFF;" vertex="1" parent="1">
                    <mxGeometry x="430" y="120" width="60" height="30" as="geometry"/>
                </mxCell>
                <mxCell id="60" value="確率" style="text;html=1;strokeColor=none;fillColor=none;align=center;verticalAlign=middle;whiteSpace=wrap;rounded=0;fontColor=#FFFFFF;" vertex="1" parent="1">
                    <mxGeometry x="570" y="120" width="60" height="30" as="geometry"/>
                </mxCell>
                <mxCell id="61" value="ランダム性が低い" style="text;html=1;strokeColor=none;fillColor=none;align=center;verticalAlign=middle;whiteSpace=wrap;rounded=0;fontColor=#000000;" vertex="1" parent="1">
                    <mxGeometry x="260" y="40" width="110" height="30" as="geometry"/>
                </mxCell>
                <mxCell id="64" value="ランダム性が高い" style="text;html=1;strokeColor=none;fillColor=none;align=center;verticalAlign=middle;whiteSpace=wrap;rounded=0;fontColor=#000000;" vertex="1" parent="1">
                    <mxGeometry x="550" y="40" width="110" height="30" as="geometry"/>
                </mxCell>
                <mxCell id="65" value="" style="shape=flexArrow;endArrow=classic;html=1;fontColor=#000000;endWidth=20;endSize=6.17;width=20;" edge="1" parent="1">
                    <mxGeometry width="50" height="50" relative="1" as="geometry">
                        <mxPoint x="150" y="310" as="sourcePoint"/>
                        <mxPoint x="150" y="110" as="targetPoint"/>
                    </mxGeometry>
                </mxCell>
                <mxCell id="66" value="もっともらしさ&lt;br&gt;高い" style="text;html=1;strokeColor=none;fillColor=none;align=center;verticalAlign=middle;whiteSpace=wrap;rounded=0;fontColor=#000000;" vertex="1" parent="1">
                    <mxGeometry x="40" y="110" width="90" height="40" as="geometry"/>
                </mxCell>
                <mxCell id="67" value="もっともらしさ&lt;br&gt;低い" style="text;html=1;strokeColor=none;fillColor=none;align=center;verticalAlign=middle;whiteSpace=wrap;rounded=0;fontColor=#000000;" vertex="1" parent="1">
                    <mxGeometry x="40" y="270" width="90" height="40" as="geometry"/>
                </mxCell>
                <mxCell id="68" value="「大きな家に」に続く語を選ぶ" style="rounded=0;whiteSpace=wrap;html=1;strokeColor=#999999;fontColor=#000000;fillColor=#FFFFFF;" vertex="1" parent="1">
                    <mxGeometry x="40" y="40" width="200" height="40" as="geometry"/>
                </mxCell>
            </root>
        </mxGraphModel>
    </diagram>
</mxfile>